<?xml version="1.0" standalone="no"?>
<!DOCTYPE svg PUBLIC "-//W3C//DTD SVG 20010904//EN"
 "http://www.w3.org/TR/2001/REC-SVG-20010904/DTD/svg10.dtd">
<svg version="1.0" xmlns="http://www.w3.org/2000/svg"
 width="300.000000pt" height="165.000000pt" viewBox="0 0 300.000000 165.000000"
 preserveAspectRatio="xMidYMid meet">
<metadata>
Created by potrace 1.10, written by Peter Selinger 2001-2011
</metadata>
<g transform="translate(0.000000,165.000000) scale(0.100000,-0.100000)"
fill="#000000" stroke="none">
<path d="M71 1603 c-33 -49 -34 -60 -32 -187 2 -107 16 -154 59 -198 28 -29
32 -38 18 -38 -22 0 -102 -54 -110 -75 -16 -43 5 -160 39 -211 28 -43 103 -85
190 -106 111 -28 142 -19 231 64 89 83 107 122 108 222 l0 79 -42 37 -41 37
45 44 c56 54 79 97 93 174 13 67 13 160 2 190 -5 12 -8 -19 -8 -75 0 -138 -20
-198 -91 -272 l-57 -59 -51 11 c-35 8 -63 8 -85 1 -31 -8 -28 -9 31 -10 36 -1
72 -5 80 -11 27 -17 -14 -22 -97 -10 -73 10 -165 2 -194 -16 -5 -3 -27 12 -48
33 -48 48 -65 118 -59 243 4 77 7 90 36 133 18 26 29 47 23 47 -5 0 -23 -21
-40 -47z m323 -413 c15 -6 44 -6 70 -1 40 7 47 6 67 -16 17 -17 24 -39 27 -81
6 -87 -12 -136 -71 -200 -101 -106 -152 -121 -281 -82 -99 31 -146 72 -173
150 -40 115 -28 152 66 199 36 19 47 20 81 11 45 -12 47 -19 26 -96 -23 -88
-35 -98 -36 -31 0 66 -9 67 -43 4 l-22 -42 -3 60 c-4 87 -19 89 -18 3 1 -86
17 -96 53 -33 l23 40 0 -52 c0 -55 12 -67 30 -33 6 10 16 17 24 14 7 -3 32 15
57 40 28 31 51 46 68 46 18 0 22 3 14 11 -18 18 -52 0 -98 -49 -41 -44 -42
-45 -42 -19 0 15 3 24 7 22 4 -3 11 2 14 11 4 10 2 13 -6 8 -8 -5 -9 -2 -5 10
4 10 7 30 7 44 0 27 0 27 72 26 l72 -1 12 -34 c7 -19 13 -48 13 -66 1 -37 10
-63 21 -63 5 0 9 8 9 18 0 9 2 31 5 47 3 17 3 22 0 12 -7 -23 -24 -12 -24 16
0 12 -7 34 -14 49 -13 25 -13 29 2 38 21 12 20 12 -53 0 -68 -11 -189 5 -150
21 29 11 169 11 199 -1z"/>
<path d="M460 1160 c0 -5 5 -10 10 -10 6 0 10 5 10 10 0 6 -4 10 -10 10 -5 0
-10 -4 -10 -10z"/>
<path d="M461 1113 c-9 -190 -9 -234 -1 -191 5 29 20 62 39 85 30 37 43 93 20
93 -13 0 -42 -69 -35 -86 3 -8 1 -14 -5 -14 -7 0 -9 20 -5 58 4 31 3 63 -2 70
-7 10 -10 5 -11 -15z m49 -73 c-16 -40 -23 -33 -9 9 6 18 14 30 17 27 2 -3 -1
-19 -8 -36z"/>
<path d="M318 1059 c-26 -15 -22 -29 12 -40 39 -14 29 -29 -18 -30 -32 0 -34
-1 -15 -9 23 -9 83 5 83 19 0 13 -24 31 -42 31 -30 0 -20 19 15 29 28 8 29 9
7 10 -14 0 -33 -4 -42 -10z"/>
<path d="M250 1000 c0 -5 5 -10 10 -10 6 0 10 5 10 10 0 6 -4 10 -10 10 -5 0
-10 -4 -10 -10z"/>
<path d="M123 933 c37 -2 97 -2 135 0 37 2 6 3 -68 3 -74 0 -105 -1 -67 -3z"/>
<path d="M330 928 c0 -4 24 -7 53 -7 54 1 49 5 -15 11 -21 2 -38 0 -38 -4z"/>
<path d="M492 1634 c-11 -12 -12 -34 -7 -95 l7 -81 -21 14 c-19 11 -24 11 -37
-6 -8 -11 -14 -26 -14 -33 0 -7 -4 -13 -10 -13 -13 0 -13 6 5 40 9 17 12 30 7
30 -5 0 -13 -10 -19 -22 -8 -19 -11 -14 -21 37 -7 33 -17 67 -23 75 -7 11 -9
6 -4 -20 19 -100 38 -171 47 -177 7 -4 9 0 5 10 -7 18 8 24 18 7 3 -5 14 -10
23 -10 13 0 13 2 -3 14 -17 12 -18 18 -7 40 6 14 16 26 22 26 16 0 11 -32 -7
-47 -13 -11 -14 -13 -3 -10 8 2 20 -3 25 -10 6 -8 23 -16 39 -17 31 -4 31 -6
2 99 -8 28 -13 76 -12 108 0 31 1 57 1 57 0 -1 -6 -8 -13 -16z m8 -204 l1 25
11 -23 c13 -25 6 -37 -17 -29 -8 4 -15 17 -14 29 1 22 1 22 9 -2 l8 -25 2 25z"/>
<path d="M167 1633 c18 -2 50 -2 70 0 21 2 7 4 -32 4 -38 0 -55 -2 -38 -4z"/>
<path d="M290 1632 c0 -6 37 -12 90 -14 50 -2 90 0 90 5 0 4 -33 7 -74 7 -41
0 -81 3 -90 6 -9 3 -16 1 -16 -4z"/>
<path d="M543 1613 c15 -2 37 -2 50 0 12 2 0 4 -28 4 -27 0 -38 -2 -22 -4z"/>
<path d="M693 1603 c20 -2 54 -2 75 0 20 2 3 4 -38 4 -41 0 -58 -2 -37 -4z"/>
<path d="M820 1600 c-13 -8 -13 -10 2 -10 22 0 14 -27 -39 -137 l-39 -83 80
-1 c45 0 115 -4 156 -7 l75 -7 0 120 0 120 -85 1 c-47 0 -96 3 -110 7 -14 3
-32 2 -40 -3z m140 -20 l79 0 -2 -104 -2 -104 -80 6 c-44 4 -104 6 -132 5 -29
-1 -53 2 -53 6 0 4 13 32 29 62 16 30 35 73 42 97 9 30 17 41 27 37 7 -3 49
-5 92 -5z"/>
<path d="M893 1525 c0 -13 -10 -43 -21 -67 -12 -23 -19 -44 -17 -46 2 -3 19 6
37 20 18 13 48 30 66 37 40 17 40 25 2 41 -16 7 -35 18 -41 26 -17 21 -26 17
-26 -11z m62 -35 c-6 -9 -75 -51 -75 -46 0 2 7 20 15 40 14 33 17 35 40 24 13
-6 22 -14 20 -18z"/>
<path d="M144 1519 c-19 -39 -33 -77 -30 -84 2 -7 20 -16 38 -20 55 -10 80
-26 67 -42 -6 -7 -17 -13 -25 -13 -17 0 -37 -37 -30 -56 7 -19 46 -18 74 2 20
14 22 14 22 0 0 -18 21 -21 37 -5 8 8 14 5 22 -10 7 -12 18 -21 26 -21 17 0
20 16 5 25 -17 10 -11 21 18 33 l27 11 -32 -5 c-27 -5 -33 -2 -33 12 0 14 -7
10 -30 -16 l-29 -35 -1 43 c0 23 -4 42 -10 42 -5 0 -7 -7 -4 -15 3 -8 -6 -26
-20 -40 -27 -27 -56 -30 -64 -7 -2 7 0 11 5 10 5 -2 20 8 34 22 72 69 77 72
108 54 18 -11 36 -14 47 -9 20 8 17 9 -28 19 -22 5 -27 11 -24 29 2 15 10 22
25 21 11 0 21 4 21 9 0 5 -14 7 -30 5 -17 -3 -33 -1 -36 4 -6 10 -55 10 -71 0
-6 -4 -14 -19 -18 -34 -6 -21 -12 -27 -29 -24 -11 3 -27 5 -33 5 -19 1 -16 21
11 77 51 106 43 117 -10 13z m156 -66 c8 -7 -49 -53 -66 -53 -20 0 -28 25 -15
47 8 14 11 15 11 3 0 -12 3 -11 11 3 10 16 41 16 59 0z"/>
<path d="M1083 1583 c9 -2 25 -2 35 0 9 3 1 5 -18 5 -19 0 -27 -2 -17 -5z"/>
<path d="M1198 1573 c23 -2 61 -2 85 0 23 2 4 4 -43 4 -47 0 -66 -2 -42 -4z"/>
<path d="M1338 1568 c6 -6 18 -8 28 -6 14 3 12 5 -9 10 -19 3 -25 2 -19 -4z"/>
<path d="M1413 1563 c15 -2 39 -2 55 0 15 2 2 4 -28 4 -30 0 -43 -2 -27 -4z"/>
<path d="M1500 1563 c0 -5 55 -10 123 -11 67 -2 120 -2 117 1 -9 8 -240 17
-240 10z"/>
<path d="M1813 1543 c26 -2 67 -2 90 0 23 2 2 3 -48 3 -49 0 -68 -1 -42 -3z"/>
<path d="M1501 1524 c0 -11 3 -14 6 -6 3 7 2 16 -1 19 -3 4 -6 -2 -5 -13z"/>
<path d="M1990 1534 c84 -8 178 -8 173 -1 -2 4 -50 6 -106 5 -56 -1 -86 -3
-67 -4z"/>
<path d="M2223 1523 c26 -2 68 -2 95 0 26 2 4 3 -48 3 -52 0 -74 -1 -47 -3z"/>
<path d="M2585 1506 c105 -6 192 -10 194 -9 13 8 -22 11 -194 16 l-190 5 190
-12z"/>
<path d="M2790 1497 c3 -2 52 -7 110 -10 58 -2 92 -2 75 2 -33 8 -192 15 -185
8z"/>
<path d="M1876 1463 c-6 -14 -5 -15 5 -6 7 7 10 15 7 18 -3 3 -9 -2 -12 -12z"/>
<path d="M2028 1463 c7 -3 16 -2 19 1 4 3 -2 6 -13 5 -11 0 -14 -3 -6 -6z"/>
<path d="M1636 1401 c18 -11 47 -27 65 -36 l34 -16 -25 20 c-14 11 -30 21 -36
21 -6 0 -17 7 -24 15 -7 8 -20 15 -29 15 -10 0 -4 -8 15 -19z"/>
<path d="M78 1403 c6 -2 18 -2 25 0 6 3 1 5 -13 5 -14 0 -19 -2 -12 -5z"/>
<path d="M558 1383 c6 -2 18 -2 25 0 6 3 1 5 -13 5 -14 0 -19 -2 -12 -5z"/>
<path d="M648 1383 c12 -2 30 -2 40 0 9 3 -1 5 -23 4 -22 0 -30 -2 -17 -4z"/>
<path d="M1261 1363 c-8 -14 -12 -15 -22 -6 -10 10 -16 9 -31 -4 -10 -9 -18
-23 -19 -32 0 -11 -3 -10 -11 6 -12 24 -37 38 -49 26 -4 -4 -10 -21 -13 -38
-4 -16 -3 -24 0 -17 7 15 24 16 24 2 0 -18 -38 -53 -49 -45 -6 3 -20 3 -31 0
-15 -5 -20 -15 -20 -41 0 -32 2 -34 32 -34 31 0 31 0 13 -20 -14 -15 -16 -23
-7 -32 8 -8 15 -8 25 0 10 8 16 9 24 1 8 -8 4 -17 -14 -34 -32 -27 -24 -49 13
-35 23 9 25 8 19 -10 -8 -26 9 -26 35 0 21 21 55 26 80 10 13 -8 13 -11 -2
-27 -17 -16 -18 -16 -18 7 0 15 -3 21 -10 14 -12 -12 -1 -56 14 -51 6 1 18 17
26 35 17 36 30 41 30 12 0 -26 30 -26 37 0 5 18 7 18 29 3 22 -14 24 -14 30 0
3 9 3 20 0 25 -3 6 1 13 10 16 13 5 15 2 11 -14 -3 -14 -1 -20 6 -17 7 2 12
12 12 23 1 30 26 73 47 79 31 10 19 50 -17 57 -14 2 -19 10 -17 26 2 17 -2 22
-17 22 -12 0 -21 5 -21 10 0 6 5 10 10 10 6 0 10 7 10 15 0 17 -18 19 -40 4
-11 -8 -9 -9 10 -3 22 6 23 5 11 -10 -10 -12 -17 -14 -27 -5 -8 6 -14 18 -14
25 0 18 -14 18 -29 0 -10 -12 -19 -12 -44 -4 -40 14 -39 12 -31 32 9 24 34 20
34 -6 0 -16 3 -19 11 -11 8 8 8 17 0 32 -14 26 -37 27 -50 4z m-23 -31 c2 -7
-5 -12 -17 -12 -14 0 -19 5 -14 15 6 17 25 15 31 -3z m-78 4 c0 -2 3 -11 6
-20 9 -23 -13 -20 -26 4 -9 16 -8 20 5 20 8 0 15 -2 15 -4z m200 -26 c0 -5 -5
-10 -11 -10 -5 0 -7 5 -4 10 3 6 8 10 11 10 2 0 4 -4 4 -10z m-24 -19 c17 -5
42 -15 55 -22 13 -7 31 -12 39 -11 12 2 12 1 2 -6 -19 -13 -3 -42 24 -42 13 0
24 -6 24 -13 0 -23 -12 -27 -27 -9 -8 9 -12 11 -8 5 4 -8 -1 -13 -12 -14 -17
-1 -17 -2 0 -6 21 -6 21 -12 2 -41 -21 -29 -121 -59 -146 -44 -13 8 -19 8 -21
0 -7 -20 -76 1 -112 35 -66 62 -60 127 14 165 46 23 94 24 166 3z m-236 -76
c0 -20 -5 -25 -25 -25 -20 0 -25 5 -25 25 0 20 5 25 25 25 20 0 25 -5 25 -25z
m10 -65 c0 -5 -4 -10 -10 -10 -5 0 -10 5 -10 10 0 6 5 10 10 10 6 0 10 -4 10
-10z m35 -67 c-28 -20 -41 -16 -20 7 10 11 22 17 28 13 6 -4 3 -12 -8 -20z
m34 -19 c-14 -18 -24 -11 -15 11 3 9 11 13 16 10 8 -5 7 -11 -1 -21z m211 6
c0 -5 -4 -10 -9 -10 -6 0 -13 5 -16 10 -3 6 1 10 9 10 9 0 16 -4 16 -10z m-60
-9 c0 -6 -4 -13 -10 -16 -5 -3 -10 1 -10 9 0 9 5 16 10 16 6 0 10 -4 10 -9z"/>
<path d="M1315 1210 c0 -56 7 -76 18 -47 3 8 7 7 11 -4 7 -15 10 -15 37 -2 36
18 36 28 4 49 -25 17 -34 44 -14 44 6 0 8 -7 4 -17 -5 -15 -4 -16 6 -5 9 8 10
15 3 22 -18 18 -44 0 -44 -30 0 -23 4 -27 19 -23 23 6 39 -16 20 -28 -9 -6
-15 -4 -17 6 -2 8 -10 11 -18 8 -11 -4 -14 5 -14 41 0 25 -3 46 -7 46 -5 0 -8
-27 -8 -60z"/>
<path d="M1173 1253 c-8 -3 -13 -25 -13 -59 0 -31 4 -53 9 -50 4 3 6 17 3 31
-4 22 -1 25 27 25 17 0 31 4 31 9 0 6 -12 9 -26 8 -15 -1 -29 4 -31 11 -3 8 7
12 34 12 28 0 34 3 23 10 -16 10 -37 12 -57 3z"/>
<path d="M1256 1213 c-9 -54 -7 -73 5 -73 5 0 8 4 5 9 -3 5 -3 24 1 41 l6 33
14 -28 c8 -15 17 -25 19 -22 6 6 -28 77 -37 77 -3 0 -9 -17 -13 -37z"/>
<path d="M1193 1133 c9 -2 23 -2 30 0 6 3 -1 5 -18 5 -16 0 -22 -2 -12 -5z"/>
<path d="M1297 1123 c18 -2 50 -2 70 0 21 2 7 4 -32 4 -38 0 -55 -2 -38 -4z"/>
<path d="M1970 1355 c-25 -13 -49 -19 -55 -15 -7 5 -10 -19 -10 -70 1 -77 0
-79 -25 -82 -37 -4 -41 -45 -5 -54 37 -9 48 7 52 72 3 56 13 74 46 87 14 5 17
1 17 -22 0 -20 -6 -30 -20 -34 -23 -6 -27 -32 -5 -41 35 -13 46 4 42 68 -2 33
0 72 5 85 5 13 7 25 6 26 -2 2 -23 -7 -48 -20z m20 -25 c0 -5 -13 -16 -30 -25
-23 -12 -30 -13 -30 -3 0 7 10 18 23 24 29 15 37 16 37 4z m0 -110 c0 -5 -4
-10 -10 -10 -5 0 -10 5 -10 10 0 6 5 10 10 10 6 0 10 -4 10 -10z m-86 -59 c3
-5 -1 -11 -9 -15 -9 -3 -15 0 -15 9 0 16 16 20 24 6z"/>
<path d="M480 1318 c-3 -31 -1 -53 3 -49 5 5 7 30 5 57 l-3 49 -5 -57z"/>
<path d="M1746 1347 c2 -7 20 -20 38 -28 27 -13 33 -13 29 -2 -3 7 -16 16 -29
19 -13 3 -24 10 -24 15 0 5 -4 9 -10 9 -5 0 -7 -6 -4 -13z"/>
<path d="M1403 1343 c26 -2 67 -2 90 0 23 2 2 3 -48 3 -49 0 -68 -1 -42 -3z"/>
<path d="M1561 1336 c7 -8 169 -9 176 -2 3 3 -36 6 -87 6 -51 0 -91 -2 -89 -4z"/>
<path d="M1838 1323 c12 -2 30 -2 40 0 9 3 -1 5 -23 4 -22 0 -30 -2 -17 -4z"/>
<path d="M2050 1314 c83 -8 190 -8 190 -1 0 4 -51 6 -112 5 -62 -1 -97 -3 -78
-4z"/>
<path d="M2261 1299 c-1 -8 13 -28 29 -44 31 -30 39 -50 18 -42 -7 2 -12 10
-10 17 2 8 -3 10 -13 6 -9 -3 -13 -2 -10 4 9 14 -1 12 -36 -6 -17 -8 -39 -12
-50 -9 -18 6 -19 4 -11 -12 9 -17 7 -18 -24 -15 -29 4 -34 1 -31 -15 8 -53 82
-87 120 -55 9 8 17 10 17 5 0 -15 -23 -32 -51 -37 -13 -3 -25 -5 -27 -5 -2 -1
4 -8 12 -16 12 -13 20 -14 36 -5 11 6 18 16 14 22 -4 6 2 8 17 3 16 -4 20 -3
11 3 -11 7 -7 14 15 31 28 22 28 22 3 16 l-25 -6 25 20 c14 11 20 21 13 21 -7
0 -28 -13 -46 -30 -36 -32 -47 -36 -47 -20 0 5 27 25 61 45 63 37 88 46 54 19
-19 -16 -19 -16 5 -10 24 7 25 7 5 -9 -11 -9 -19 -22 -17 -30 1 -7 -5 -19 -15
-27 -10 -7 -19 -20 -21 -28 -2 -8 -8 -16 -13 -18 -5 -2 -9 -8 -9 -13 0 -5 24
4 54 21 47 27 55 29 66 15 7 -8 17 -15 23 -15 7 0 7 4 -1 12 -20 20 -14 34 23
54 39 21 47 40 13 28 -13 -5 -33 -8 -45 -9 -25 0 -20 -15 5 -15 15 0 15 -2 2
-10 -19 -12 -33 -13 -25 -1 3 5 1 12 -5 16 -16 10 -12 24 8 22 9 0 30 8 45 18
l29 18 -27 11 -28 11 52 28 c28 16 51 30 51 31 0 2 -37 3 -82 2 -54 -1 -83 -6
-86 -14 -6 -20 -38 -14 -55 11 -12 16 -16 18 -16 6z m169 -24 c-7 -8 -17 -15
-23 -15 -5 0 -16 -8 -23 -17 -13 -17 -13 -17 -14 -1 0 10 12 24 28 32 35 20
48 20 32 1z m-79 -48 c-9 -9 -14 -8 -21 3 -7 11 -4 17 8 21 21 8 29 -8 13 -24z
m-92 -1 c-2 -2 -15 -9 -29 -15 -24 -11 -24 -11 -6 3 16 13 49 24 35 12z m34
-13 c3 -5 -20 -22 -49 -40 -30 -17 -54 -27 -54 -21 0 5 -10 7 -22 3 -22 -6
-22 -6 -4 9 14 11 22 13 27 5 4 -8 13 -5 27 9 34 34 67 49 75 35z m107 -8
c-33 -19 -50 -18 -26 0 11 8 27 15 35 15 10 -1 7 -6 -9 -15z m-40 -85 c0 -5
-2 -10 -4 -10 -2 0 -12 -3 -20 -6 -12 -5 -15 -2 -10 10 7 17 34 22 34 6z"/>
<path d="M2298 1303 c7 -3 16 -2 19 1 4 3 -2 6 -13 5 -11 0 -14 -3 -6 -6z"/>
<path d="M720 1279 c0 -34 -44 -185 -69 -239 -11 -25 -21 -56 -21 -69 0 -20 4
-23 25 -19 18 4 25 1 25 -11 1 -14 2 -14 11 2 7 13 23 17 61 17 82 0 229 22
225 34 -2 6 0 22 5 34 4 13 11 70 14 125 3 56 7 107 9 114 3 8 -34 11 -128 12
-77 1 -136 6 -144 13 -10 8 -13 5 -13 -13z m258 -18 c11 -6 11 -30 3 -124 -11
-119 -18 -150 -30 -143 -4 3 -27 0 -52 -5 -24 -6 -81 -14 -126 -18 l-83 -7 0
56 c0 30 10 99 22 152 l23 98 115 0 c63 0 121 -4 128 -9z m-298 -240 c0 -36
-4 -51 -16 -55 -9 -4 -19 -4 -21 -2 -6 5 26 106 33 106 2 0 4 -22 4 -49z"/>
<path d="M921 1214 c-22 -18 -31 -22 -31 -11 0 8 -11 17 -25 20 -27 5 -44 -14
-46 -50 -1 -13 -3 -12 -7 5 -4 13 -10 22 -13 20 -4 -2 -16 6 -28 16 -19 17
-21 17 -21 3 0 -10 4 -17 9 -17 5 0 24 -19 42 -41 l33 -42 -44 -37 c-24 -20
-39 -40 -33 -43 6 -4 18 2 28 13 10 11 22 17 26 14 5 -3 9 0 9 6 0 5 18 -1 40
-15 58 -37 67 -31 21 15 -23 23 -41 45 -41 50 0 8 23 29 110 99 14 11 20 20
13 21 -6 0 -25 -12 -42 -26z m-51 -24 c0 -11 -2 -20 -4 -20 -2 0 -13 -3 -23
-6 -15 -5 -15 -4 -3 5 12 8 12 11 1 11 -11 0 -11 3 -1 15 17 21 30 19 30 -5z"/>
<path d="M736 1151 c-3 -4 6 -8 20 -9 13 -1 24 0 24 2 0 7 -40 14 -44 7z"/>
<path d="M908 1143 c12 -2 30 -2 40 0 9 3 -1 5 -23 4 -22 0 -30 -2 -17 -4z"/>
<path d="M1630 1290 c-12 -8 -11 -10 7 -10 12 0 25 5 28 10 8 13 -15 13 -35 0z"/>
<path d="M2558 1293 c28 -2 76 -2 105 0 28 2 5 3 -53 3 -58 0 -81 -1 -52 -3z"/>
<path d="M2755 1283 c96 -7 203 -7 198 0 -2 4 -57 6 -121 5 -64 -1 -99 -3 -77
-5z"/>
<path d="M2978 1273 c7 -3 16 -2 19 1 4 3 -2 6 -13 5 -11 0 -14 -3 -6 -6z"/>
<path d="M1670 1251 c0 -5 5 -13 10 -16 23 -14 6 -24 -50 -31 -77 -9 -78 -24
0 -24 46 0 61 4 69 17 5 10 12 15 16 12 3 -4 -1 -13 -9 -22 -16 -16 -32 -67
-21 -67 10 0 35 27 35 39 0 6 6 20 12 31 11 16 9 22 -7 35 -35 27 -55 36 -55
26z"/>
<path d="M13 1173 c9 -2 25 -2 35 0 9 3 1 5 -18 5 -19 0 -27 -2 -17 -5z"/>
<path d="M1982 1160 c0 -14 2 -19 5 -12 2 6 2 18 0 25 -3 6 -5 1 -5 -13z"/>
<path d="M603 1153 c15 -2 39 -2 55 0 15 2 2 4 -28 4 -30 0 -43 -2 -27 -4z"/>
<path d="M1028 1133 c6 -2 18 -2 25 0 6 3 1 5 -13 5 -14 0 -19 -2 -12 -5z"/>
<path d="M1483 1123 c9 -2 23 -2 30 0 6 3 -1 5 -18 5 -16 0 -22 -2 -12 -5z"/>
<path d="M2861 1113 c-6 -10 -11 -15 -11 -11 0 4 -12 3 -27 -3 -16 -6 -64 -15
-108 -19 l-80 -7 80 -2 c66 -1 82 -4 92 -20 10 -16 5 -20 -55 -39 -184 -59
-302 -80 -402 -74 -41 2 -100 -1 -130 -6 -70 -13 -49 5 39 34 34 10 61 22 61
26 0 11 1 11 -65 -12 -66 -23 -187 -99 -179 -112 3 -5 20 2 38 16 39 30 145
46 281 44 103 -2 218 22 385 82 152 53 181 62 186 57 3 -3 -2 -19 -11 -36 -8
-17 -12 -31 -7 -31 10 0 42 64 42 84 0 8 -10 16 -22 20 -33 8 -40 7 -33 -4 3
-5 16 -10 28 -10 13 -1 3 -7 -23 -15 -25 -8 -58 -19 -75 -25 -22 -8 -33 -7
-43 4 -8 8 -11 19 -8 25 10 15 46 14 42 -1 -1 -7 -1 -10 1 -7 2 4 14 5 26 2
20 -4 20 -3 4 7 -12 7 -16 18 -12 31 8 24 -1 25 -14 2z"/>
<path d="M1593 1113 c15 -2 39 -2 55 0 15 2 2 4 -28 4 -30 0 -43 -2 -27 -4z"/>
<path d="M1765 1109 c49 -7 310 -11 290 -4 -5 2 -84 5 -175 7 -91 3 -143 1
-115 -3z"/>
<path d="M2079 1097 c5 -5 28 -7 52 -5 l44 3 -52 5 c-29 3 -48 1 -44 -3z"/>
<path d="M2448 1083 c18 -2 45 -2 60 0 15 2 0 4 -33 4 -33 0 -45 -2 -27 -4z"/>
<path d="M2540 1081 c0 -5 9 -11 20 -14 24 -6 27 8 4 17 -21 8 -24 8 -24 -3z"/>
<path d="M2598 1083 c7 -3 16 -2 19 1 4 3 -2 6 -13 5 -11 0 -14 -3 -6 -6z"/>
<path d="M1610 1070 c0 -5 5 -10 11 -10 5 0 7 5 4 10 -3 6 -8 10 -11 10 -2 0
-4 -4 -4 -10z"/>
<path d="M2526 1063 c-3 -3 5 -14 17 -24 20 -18 21 -19 2 -13 -15 4 -16 3 -6
-4 10 -7 11 -14 2 -31 -7 -12 -8 -21 -2 -21 5 0 13 9 16 20 7 22 20 26 30 10
3 -5 12 -10 18 -10 7 0 1 9 -13 20 -20 15 -21 20 -8 20 9 0 20 5 24 11 5 9 -1
10 -20 5 -16 -4 -25 -3 -22 2 6 10 -29 23 -38 15z"/>
<path d="M1810 1050 c-8 -5 -10 -10 -5 -10 6 0 17 5 25 10 8 5 11 10 5 10 -5
0 -17 -5 -25 -10z"/>
<path d="M1653 1043 c9 -2 23 -2 30 0 6 3 -1 5 -18 5 -16 0 -22 -2 -12 -5z"/>
<path d="M2377 1035 c-54 -14 -79 -31 -29 -20 19 4 32 3 32 -3 0 -6 3 -17 6
-25 3 -8 -2 -17 -11 -21 -11 -4 -14 -2 -9 6 5 8 2 9 -10 5 -10 -4 -20 -7 -22
-7 -3 0 -2 -4 1 -10 9 -15 71 -12 84 3 8 10 7 19 -4 33 -18 24 -19 34 -1 34 8
0 16 -10 18 -22 4 -26 47 -45 74 -33 15 7 11 10 -20 14 -50 8 -56 25 -15 40
18 6 29 14 26 17 -3 4 -19 2 -36 -4 -16 -6 -31 -7 -33 -3 -2 5 -24 3 -51 -4z
m38 -55 c3 -5 1 -10 -4 -10 -6 0 -11 5 -11 10 0 6 2 10 4 10 3 0 8 -4 11 -10z"/>
<path d="M1047 915 c-9 -19 -12 -37 -8 -40 5 -3 15 10 22 28 7 17 14 35 17 40
2 4 0 7 -5 7 -5 0 -17 -16 -26 -35z"/>
<path d="M1336 934 c-4 -10 1 -25 10 -36 21 -23 32 -15 13 9 -11 15 -10 15 9
-1 32 -27 36 -15 6 17 -29 32 -30 32 -38 11z"/>
<path d="M578 923 c18 -2 45 -2 60 0 15 2 0 4 -33 4 -33 0 -45 -2 -27 -4z"/>
<path d="M1075 900 c-19 -36 -4 -40 19 -5 19 28 20 35 6 35 -5 0 -16 -13 -25
-30z"/>
<path d="M1175 911 c-45 -27 -68 -66 -60 -102 4 -16 11 -29 16 -29 6 0 8 4 4
9 -3 6 14 11 37 13 40 3 43 5 40 29 -3 29 20 54 43 45 27 -10 18 -55 -15 -74
-16 -9 -30 -22 -30 -29 0 -6 -3 -18 -6 -27 -5 -13 1 -16 31 -16 22 0 34 4 30
10 -4 6 12 28 34 51 46 45 50 68 20 110 -17 25 -27 29 -67 29 -28 0 -59 -8
-77 -19z m133 -18 c20 -28 14 -61 -18 -89 -16 -15 -32 -35 -35 -45 -8 -24 -35
-25 -35 -1 0 9 13 25 30 34 53 30 49 98 -6 98 -25 0 -55 -35 -48 -55 4 -8 -7
-14 -31 -17 -19 -2 -38 -2 -40 0 -10 10 28 64 58 83 37 23 104 19 125 -8z"/>
<path d="M1789 906 c-8 -17 -8 -33 -1 -53 10 -26 10 -25 11 20 1 31 5 46 12
42 6 -4 8 -13 5 -21 -7 -19 10 -27 31 -15 16 9 16 10 2 11 -9 0 -19 9 -22 20
-7 27 -25 25 -38 -4z"/>
<path d="M788 913 c45 -2 119 -2 165 0 45 1 8 3 -83 3 -91 0 -128 -2 -82 -3z"/>
<path d="M2491 897 c-1 -10 -5 -15 -11 -12 -5 3 -10 0 -10 -7 0 -9 -3 -9 -10
2 -5 8 -10 11 -10 5 0 -6 -32 -10 -75 -10 -42 -1 -75 3 -75 9 0 24 -11 -7 -35
-99 -18 -68 -24 -112 -20 -137 7 -38 25 -53 25 -21 0 9 3 13 6 10 10 -10 45
13 38 25 -4 6 -1 9 7 6 9 -3 13 -16 11 -36 -4 -38 11 -41 33 -9 11 17 26 24
53 26 59 2 77 8 74 21 -2 8 3 10 13 7 11 -5 15 1 16 26 1 18 1 35 0 39 0 4 5
25 13 45 8 21 17 52 21 68 6 29 6 29 -10 10 -16 -20 -16 -19 -10 5 4 15 3 20
-2 13 -10 -14 -27 -5 -36 17 -4 12 -6 11 -6 -3z m-164 -69 c-3 26 0 32 16 32
14 0 17 -4 12 -17 -16 -39 -18 -56 -7 -49 7 4 12 1 12 -9 0 -8 -6 -18 -12 -20
-7 -3 -14 -17 -15 -31 0 -14 -7 -31 -13 -38 -10 -9 -11 -3 -7 24 3 19 8 43 12
53 4 9 3 17 -3 17 -13 0 -22 -35 -22 -87 0 -24 -4 -43 -10 -43 -12 0 -11 44 3
134 l11 69 13 -34 13 -34 -3 33z m65 3 c3 -22 0 -28 -11 -26 -9 1 -17 10 -19
21 -3 16 -1 17 7 4 9 -12 11 -11 11 8 0 31 7 28 12 -7z m53 2 c-13 -55 -40
-59 -29 -5 4 19 13 32 21 32 11 0 13 -7 8 -27z m65 12 c0 -9 -7 -31 -14 -50
-8 -19 -11 -35 -5 -35 5 0 9 -9 9 -20 0 -11 -4 -20 -10 -20 -5 0 -6 7 -3 17 4
10 2 14 -5 9 -19 -11 -23 11 -7 40 18 35 20 68 3 58 -7 -4 -8 -3 -4 4 10 17
36 15 36 -3z m22 -27 c-7 -7 -12 -8 -12 -2 0 14 12 26 19 19 2 -3 -1 -11 -7
-17z m-73 -29 c-23 -71 -41 -102 -50 -88 -5 8 -9 26 -9 42 0 15 -4 27 -9 27
-4 0 -7 -18 -6 -40 2 -35 0 -40 -16 -35 -15 5 -19 1 -19 -16 0 -17 -3 -20 -11
-12 -8 8 -5 24 10 56 12 25 21 51 21 56 0 6 7 11 15 11 8 0 15 -5 15 -11 0 -5
5 -7 10 -4 6 4 8 -8 5 -32 -3 -27 -2 -34 5 -23 5 8 10 20 10 26 0 17 31 87 36
82 2 -3 -1 -20 -7 -39z m21 -84 c0 -6 -9 -11 -20 -12 -11 -1 -19 1 -17 5 2 4
7 16 11 27 6 16 9 17 16 5 6 -8 10 -20 10 -25z m-213 3 c-3 -8 -6 -5 -6 6 -1
11 2 17 5 13 3 -3 4 -12 1 -19z m243 -8 c0 -5 -4 -10 -10 -10 -5 0 -10 5 -10
10 0 6 5 10 10 10 6 0 10 -4 10 -10z m-245 -29 c3 -5 1 -12 -5 -16 -5 -3 -10
1 -10 9 0 18 6 21 15 7z m115 4 c0 -11 -32 -67 -36 -63 -6 7 19 68 28 68 4 0
8 -2 8 -5z m60 -4 c0 -6 -9 -9 -20 -8 -11 1 -20 5 -20 9 0 4 9 8 20 8 11 0 20
-4 20 -9z"/>
<path d="M1528 893 c45 -2 119 -2 165 0 45 1 8 3 -83 3 -91 0 -128 -2 -82 -3z"/>
<path d="M1980 893 c0 -5 -23 -7 -52 -6 -35 1 -48 -1 -38 -7 12 -8 12 -10 2
-10 -8 0 -12 -5 -10 -12 2 -6 23 -13 47 -14 36 -2 44 1 48 17 3 10 9 19 14 19
5 0 9 5 9 10 0 6 -4 10 -10 10 -5 0 -10 -3 -10 -7z m-45 -23 c-3 -5 -11 -10
-16 -10 -6 0 -7 5 -4 10 3 6 11 10 16 10 6 0 7 -4 4 -10z m35 -11 c0 -5 -4 -9
-10 -9 -5 0 -10 7 -10 16 0 8 5 12 10 9 6 -3 10 -10 10 -16z"/>
<path d="M2010 866 c0 -15 7 -26 18 -29 11 -3 9 -5 -8 -6 -14 0 -99 -4 -190
-9 -122 -5 -174 -4 -200 5 -52 18 -86 16 -115 -10 -36 -30 -46 -99 -19 -128
28 -31 73 -51 98 -45 38 9 76 46 76 72 0 17 6 24 19 24 11 0 26 3 35 6 12 5
14 -1 9 -30 -6 -36 -5 -36 30 -36 35 0 36 0 30 35 -6 35 -5 35 31 35 l36 0 0
-45 0 -45 36 0 37 0 -6 44 c-6 39 -4 44 16 50 34 9 36 8 39 -30 2 -21 10 -42
20 -48 34 -21 44 11 48 153 0 7 6 11 15 7 8 -3 15 -1 15 4 0 5 -9 11 -19 15
-11 3 -22 12 -25 20 -9 24 -26 17 -26 -9z m17 -8 c-3 -8 -6 -5 -6 6 -1 11 2
17 5 13 3 -3 4 -12 1 -19z m-407 -42 c8 -1 25 -7 36 -13 12 -7 23 -11 25 -9 2
2 78 7 169 11 91 4 168 9 173 12 4 2 7 -26 7 -62 0 -58 -2 -66 -17 -63 -13 3
-18 13 -18 41 l0 38 -40 -3 c-39 -3 -40 -4 -43 -45 -3 -35 -7 -43 -23 -43 -16
0 -19 7 -19 40 0 38 -2 40 -32 42 -49 2 -140 -3 -160 -8 -10 -3 -18 -14 -18
-24 0 -64 -100 -90 -146 -37 -47 55 4 149 71 130 11 -3 27 -6 35 -7z m160 -91
c0 -18 -5 -25 -20 -25 -23 0 -24 4 -10 31 15 27 30 24 30 -6z"/>
<path d="M1560 787 c-20 -10 -25 -20 -25 -52 0 -39 1 -40 37 -43 27 -2 43 3
57 17 26 26 26 41 1 69 -24 25 -35 27 -70 9z m77 -51 c-5 -16 -56 -39 -73 -32
-20 8 -29 36 -17 55 12 18 32 22 51 8 9 -7 11 -5 6 9 -4 15 -2 14 15 -5 12
-13 20 -29 18 -35z"/>
<path d="M2193 873 c15 -2 39 -2 55 0 15 2 2 4 -28 4 -30 0 -43 -2 -27 -4z"/>
<path d="M1845 861 c3 -5 -5 -12 -17 -14 -20 -4 -19 -4 5 -6 18 -1 27 4 27 14
0 8 -5 15 -11 15 -5 0 -8 -4 -4 -9z"/>
<path d="M2633 863 c37 -2 96 -2 130 0 34 2 4 3 -68 3 -71 0 -99 -1 -62 -3z"/>
<path d="M2839 857 c4 -4 43 -7 87 -5 l79 3 -87 5 c-48 3 -83 1 -79 -3z"/>
<path d="M436 784 c-3 -9 -6 -33 -6 -54 l0 -39 -112 -4 c-62 -1 15 -3 172 -3
157 0 209 2 116 3 l-169 3 7 55 c6 55 3 69 -8 39z"/>
<path d="M935 705 c-70 -34 -110 -63 -99 -74 3 -3 8 -1 12 5 4 6 39 28 77 48
124 64 131 79 10 21z"/>
<path d="M2076 732 c-17 -28 447 -411 618 -509 l41 -23 -784 0 c-431 0 -786
-2 -789 -5 -3 -3 354 -5 794 -5 l800 0 118 -65 c66 -36 121 -63 123 -61 5 5
-22 20 -207 121 -150 82 -254 150 -335 219 -33 29 -103 86 -155 128 -105 83
-152 126 -192 176 -14 18 -29 29 -32 24z"/>
<path d="M1078 688 c-42 -44 -78 -88 -78 -95 0 -5 25 19 55 51 30 33 53 61 51
64 -3 2 -15 -7 -28 -20z"/>
<path d="M0 697 c9 -8 200 -16 200 -8 0 4 -46 9 -102 10 -57 1 -101 0 -98 -2z"/>
<path d="M1190 685 c-18 -22 -4 -31 18 -12 21 19 32 22 32 7 0 -5 -5 -10 -11
-10 -6 0 -17 -7 -25 -15 -14 -13 -14 -15 1 -15 28 0 55 20 55 40 0 15 -7 20
-29 20 -16 0 -34 -7 -41 -15z"/>
<path d="M800 680 c20 -13 43 -13 35 0 -3 6 -16 10 -28 10 -18 0 -19 -2 -7
-10z"/>
<path d="M973 673 c15 -2 39 -2 55 0 15 2 2 4 -28 4 -30 0 -43 -2 -27 -4z"/>
<path d="M1118 673 c12 -2 30 -2 40 0 9 3 -1 5 -23 4 -22 0 -30 -2 -17 -4z"/>
<path d="M1328 673 c28 -2 76 -2 105 0 28 2 5 3 -53 3 -58 0 -81 -1 -52 -3z"/>
<path d="M426 653 c-2 -10 -8 -62 -12 -116 l-7 -99 -127 4 c-71 1 -126 1 -123
-2 7 -7 11 -7 137 -9 l114 -1 -4 -77 c-3 -43 -7 -97 -10 -120 l-5 -43 -177 -3
-177 -2 179 -3 179 -2 -5 -76 c-3 -42 -1 -70 3 -62 5 7 9 41 9 76 l0 62 183 1
c100 1 193 4 207 8 14 4 -68 5 -181 3 l-207 -4 4 43 c2 24 6 79 10 121 l6 78
196 3 197 2 -198 3 -199 2 7 93 c3 50 8 102 11 115 5 26 -2 30 -10 5z"/>
<path d="M1683 663 c9 -2 25 -2 35 0 9 3 1 5 -18 5 -19 0 -27 -2 -17 -5z"/>
<path d="M1758 663 c7 -3 16 -2 19 1 4 3 -2 6 -13 5 -11 0 -14 -3 -6 -6z"/>
<path d="M1813 663 c9 -2 23 -2 30 0 6 3 -1 5 -18 5 -16 0 -22 -2 -12 -5z"/>
<path d="M1948 663 c6 -2 18 -2 25 0 6 3 1 5 -13 5 -14 0 -19 -2 -12 -5z"/>
<path d="M2065 660 c11 -5 29 -8 40 -8 16 0 15 2 -5 8 -34 11 -60 11 -35 0z"/>
<path d="M761 641 c-14 -26 -14 -128 0 -137 7 -4 10 5 8 28 -2 21 4 46 14 62
20 29 19 57 0 63 -6 2 -16 -5 -22 -16z m29 -9 c0 -5 -6 -17 -14 -27 -13 -18
-14 -18 -9 8 5 24 23 39 23 19z"/>
<path d="M2193 653 c9 -2 23 -2 30 0 6 3 -1 5 -18 5 -16 0 -22 -2 -12 -5z"/>
<path d="M1111 579 c-22 -40 -38 -75 -36 -78 7 -6 7 -5 48 73 49 93 39 97 -12
5z"/>
<path d="M1370 584 c-134 -93 -228 -164 -314 -239 -41 -36 -79 -65 -85 -65
-13 0 -13 27 -1 55 7 16 9 17 9 3 1 -9 5 -19 10 -23 12 -7 2 65 -11 82 -7 8 5
18 41 34 28 12 48 25 46 30 -3 4 -22 -2 -42 -14 -34 -20 -36 -20 -30 -2 13 32
-30 47 -57 19 -20 -20 -21 -44 -1 -44 20 0 19 -12 -3 -52 -24 -44 -33 -68 -24
-68 4 0 15 20 25 45 18 44 37 59 37 31 0 -7 -7 -29 -15 -49 -8 -19 -12 -37 -9
-39 3 -3 -17 -11 -43 -17 -33 -9 -49 -9 -51 -2 -9 28 -19 6 -21 -45 -1 -31 -6
-64 -10 -73 -5 -9 -12 -44 -15 -79 -6 -69 0 -74 52 -48 34 16 175 54 222 59
20 2 41 6 47 10 18 11 23 79 11 140 l-12 58 -64 -5 -63 -5 43 38 c85 75 198
161 322 245 70 47 121 86 114 86 -7 -1 -56 -30 -108 -66z m-391 -140 c-9 -11
-15 -11 -25 -3 -19 15 -9 28 16 22 16 -4 18 -8 9 -19z m125 -256 c-3 -78 -5
-83 -26 -86 -13 -2 -65 -14 -117 -28 -52 -13 -97 -21 -100 -18 -3 3 -8 45 -9
94 l-4 88 40 7 c44 7 164 22 198 24 21 1 22 -2 18 -81z m26 -10 c0 -35 -4 -58
-8 -51 -7 11 -4 113 4 113 2 0 4 -28 4 -62z m-290 -108 c0 -16 -4 -30 -10 -30
-11 0 -14 43 -3 53 11 12 13 8 13 -23z"/>
<path d="M895 203 c-27 -24 -31 -30 -13 -19 15 9 30 16 33 16 12 0 4 -37 -15
-68 -20 -32 -20 -32 0 -32 11 0 20 4 20 9 0 13 64 48 110 61 70 19 54 28 -70
43 -14 1 -24 8 -22 15 3 16 2 16 -43 -25z m100 -25 c-16 -6 -38 -17 -47 -26
-18 -15 -23 -6 -12 22 4 11 18 16 48 15 l41 -1 -30 -10z"/>
<path d="M2638 643 c67 -2 177 -2 245 0 67 1 12 3 -123 3 -135 0 -190 -2 -122
-3z"/>
<path d="M633 609 c-15 -5 -23 -17 -23 -33 0 -40 55 -49 97 -16 14 11 20 20
14 20 -9 0 -9 5 0 23 11 19 10 20 -2 10 -15 -12 -36 -13 -54 -1 -5 3 -20 2
-32 -3z m14 -26 c-9 -9 -19 -14 -23 -11 -10 10 6 28 24 28 15 0 15 -1 -1 -17z
m39 -18 c-6 -16 -46 -21 -46 -6 0 5 10 15 23 24 23 15 33 7 23 -18z"/>
<path d="M910 611 c0 -14 40 -104 44 -100 7 7 -27 109 -36 109 -4 0 -8 -4 -8
-9z"/>
<path d="M2066 609 c4 -7 44 0 44 7 0 2 -11 3 -24 2 -14 -1 -23 -5 -20 -9z"/>
<path d="M1553 603 c-91 -4 -81 5 -99 -96 -9 -55 4 -147 23 -154 9 -4 37 -1
62 6 25 7 123 18 218 25 95 6 175 15 179 19 4 3 2 12 -4 19 -9 12 -19 88 -21
166 -1 22 -2 22 -138 20 -76 -1 -175 -4 -220 -5z m-51 -52 c3 -18 0 -27 -5
-24 -6 4 -7 -23 -2 -70 7 -77 0 -112 -16 -86 -10 16 -12 142 -3 188 8 37 20
33 26 -8z m390 -50 l3 -88 -70 -2 c-38 -1 -99 -6 -135 -11 -106 -15 -148 -13
-160 9 -20 39 -7 171 17 171 10 0 11 -5 4 -17 -5 -10 -10 -38 -12 -63 l-4 -44
45 3 c31 2 53 10 71 27 28 27 39 23 39 -13 0 -21 3 -22 20 -13 12 6 29 8 39 5
11 -3 26 1 34 10 14 14 17 14 26 -2 5 -10 13 -15 17 -11 4 4 2 13 -4 21 -6 7
-9 23 -5 35 3 13 1 22 -6 22 -6 0 -11 -8 -11 -18 0 -18 -18 -42 -31 -42 -4 0
-5 10 -2 23 5 21 5 21 -9 3 -10 -13 -17 -15 -22 -8 -4 7 -12 12 -18 12 -7 0
-7 -4 1 -13 11 -14 6 -27 -11 -27 -12 0 -10 34 3 47 6 6 19 9 28 6 13 -5 13
-3 4 7 -7 8 -19 10 -30 5 -10 -5 -23 -7 -29 -6 -6 0 -17 -5 -24 -13 -9 -12
-16 -13 -30 -4 -21 13 -50 -3 -50 -28 0 -8 -7 -14 -15 -14 -20 0 -19 6 10 44
14 18 25 40 25 49 0 19 27 23 177 25 l112 2 3 -89z m-375 57 c-3 -8 -6 -5 -6
6 -1 11 2 17 5 13 3 -3 4 -12 1 -19z m73 10 c0 -7 -9 -26 -20 -43 -19 -28 -20
-29 -20 -7 0 28 17 62 30 62 6 0 10 -6 10 -12z m46 -69 c9 -16 -10 -31 -30
-23 -13 5 -14 9 -5 20 14 17 25 18 35 3z m-106 -122 c0 -5 -4 -5 -10 -2 -5 3
-10 14 -10 23 0 15 2 15 10 2 5 -8 10 -19 10 -23z"/>
<path d="M1593 433 c9 -2 23 -2 30 0 6 3 -1 5 -18 5 -16 0 -22 -2 -12 -5z"/>
<path d="M1658 432 c12 -2 22 -9 22 -15 0 -9 2 -9 8 0 5 8 42 13 97 16 72 2
66 3 -30 3 -66 0 -110 -1 -97 -4z"/>
<path d="M1615 490 c-3 -5 -1 -10 4 -10 6 0 11 5 11 10 0 6 -2 10 -4 10 -3 0
-8 -4 -11 -10z"/>
<path d="M1963 603 c9 -2 23 -2 30 0 6 3 -1 5 -18 5 -16 0 -22 -2 -12 -5z"/>
<path d="M890 530 c0 -7 -7 -10 -17 -6 -20 8 -33 -9 -33 -44 0 -20 -2 -22 -10
-10 -8 12 -10 12 -10 -5 0 -31 11 -65 21 -65 5 0 9 12 9 26 0 14 5 35 11 46 8
15 8 19 0 14 -6 -4 -11 -1 -11 8 0 21 17 29 24 10 3 -9 6 -30 6 -47 0 -54 17
-65 23 -16 3 24 7 55 9 68 2 13 -3 26 -9 28 -7 3 -13 -1 -13 -7z m20 -19 c0
-6 -4 -13 -10 -16 -5 -3 -10 1 -10 9 0 9 5 16 10 16 6 0 10 -4 10 -9z"/>
<path d="M33 443 c20 -2 54 -2 75 0 20 2 3 4 -38 4 -41 0 -58 -2 -37 -4z"/>
<path d="M1090 439 c0 -5 9 -9 20 -9 11 0 20 4 20 8 0 4 -9 8 -20 9 -11 1 -20
-2 -20 -8z"/>
<path d="M1225 440 c-3 -5 -1 -10 4 -10 6 0 11 5 11 10 0 6 -2 10 -4 10 -3 0
-8 -4 -11 -10z"/>
<path d="M1260 438 c0 -4 39 -8 87 -8 47 0 84 2 82 4 -8 8 -169 12 -169 4z"/>
<path d="M1941 436 c2 -2 105 -6 229 -9 145 -3 189 -2 125 3 -106 8 -361 13
-354 6z"/>
<path d="M2588 423 c79 -2 205 -2 280 0 75 1 11 3 -143 3 -154 0 -216 -2 -137
-3z"/>
<path d="M2946 201 c-4 -5 1 -8 9 -7 21 3 31 16 12 16 -9 0 -18 -4 -21 -9z"/>
<path d="M15 190 c-3 -5 -1 -10 4 -10 6 0 11 5 11 10 0 6 -2 10 -4 10 -3 0 -8
-4 -11 -10z"/>
<path d="M2827 193 c18 -2 50 -2 70 0 21 2 7 4 -32 4 -38 0 -55 -2 -38 -4z"/>
<path d="M723 63 c-40 -32 -70 -59 -68 -61 4 -4 145 106 145 113 0 8 -3 6 -77
-52z"/>
<path d="M1170 76 c0 -2 7 -9 15 -16 9 -7 15 -8 15 -2 0 5 -7 12 -15 16 -8 3
-15 4 -15 2z"/>
<path d="M2353 72 c-40 -2 -73 -7 -73 -12 0 -5 21 -7 48 -4 26 3 117 9 202 14
l155 8 -130 -2 c-71 0 -163 -2 -202 -4z"/>
<path d="M2695 70 c3 -5 10 -10 16 -10 5 0 9 5 9 10 0 6 -7 10 -16 10 -8 0
-12 -4 -9 -10z"/>
<path d="M2753 63 c15 -2 37 -2 50 0 12 2 0 4 -28 4 -27 0 -38 -2 -22 -4z"/>
<path d="M2208 53 c12 -2 32 -2 45 0 12 2 2 4 -23 4 -25 0 -35 -2 -22 -4z"/>
<path d="M1695 34 c-49 -8 -119 -18 -155 -22 -47 -6 2 -9 184 -10 136 -1 246
2 243 5 -4 3 -82 6 -174 5 -118 0 -153 3 -118 8 77 12 333 22 310 11 -22 -9
105 -4 163 8 71 13 -364 9 -453 -5z"/>
</g>
</svg>
